<?xml version="1.0" encoding="UTF-8"?>
<svg id="Layer_1" data-name="Layer 1" xmlns="http://www.w3.org/2000/svg" version="1.1" viewBox="0 0 50 50">
  <defs>
    <style>
      .cls-1 {
        fill: #fff;
        stroke-width: 0px;
      }
    </style>
  </defs>
  <path class="cls-1" d="M25,8c-6.6,0-9,.9-9.5,1.1-1.6.5-3.8,1.3-4.8,3.2-.7,1.3-5.1,13.2-5.6,14.5v.2c0,0,0,12,0,12,0,1.7,1.3,3,3,3h4c1.7,0,3-1.3,3-3v-1h20v1c0,1.7,1.3,3,3,3h4c1.7,0,3-1.3,3-3v-12.2c-.2-.3-1.6-4-3-7.6,0,0,0,0,0,0-1.2-3-2.3-5.9-2.7-6.8-.8-1.9-3.2-2.8-4.8-3.2-.5-.2-3-1.1-9.4-1.1ZM25,10c6.6,0,8.6.9,8.7.9h.2c.8.3,3.1.9,3.6,2.2.3.8,1.4,3.4,2.5,6.2v.2c.1,0,.1,0,.1.1,0,0,0,.1,0,.2.2.6.5,1.6.1,2.2-.4.6-1.5.9-3.2.9H13c-1.7,0-2.9-.4-3.3-1-.5-.7,0-1.9.3-2.5v-.2c1.3-3,2.2-5.5,2.5-6,.6-1.2,2.5-1.9,3.8-2.3h0s2.1-.9,8.7-.9ZM5.1,19c-3,0-4.1,1.9-4.1,3.6s.4,2.2,2.6,2.4c.6-1.7,1.4-3.8,2.2-6h-.8ZM44.1,19c.9,2.3,1.8,4.6,2.3,6,2.3-.2,2.6-1.5,2.6-2.4,0-1.7-1.1-3.6-4.1-3.6h-.8ZM11,27h4c1.7,0,3,1.3,3,3s-1.3,3-3,3-2.2-.4-3.9-1.4c-1.2-.7-2.1-1.3-2.1-2.6s.9-2,2-2ZM35,27h4c1.1,0,2,.9,2,2s-.9,1.9-2.1,2.6c-1.7,1-2.2,1.4-3.9,1.4s-3-1.3-3-3,1.3-3,3-3Z"/>
</svg>